<?xml version="1.0" encoding="UTF-8" standalone="no"?>
<!-- Created with Sodipodi ("http://www.sodipodi.com/") -->
<svg xmlns:inkscape="http://www.inkscape.org/namespaces/inkscape" xmlns:rdf="http://www.w3.org/1999/02/22-rdf-syntax-ns#" xmlns="http://www.w3.org/2000/svg" xmlns:cc="http://creativecommons.org/ns#" xmlns:dc="http://purl.org/dc/elements/1.1/" xmlns:sodipodi="http://sodipodi.sourceforge.net/DTD/sodipodi-0.dtd" xmlns:svg="http://www.w3.org/2000/svg" xmlns:ns1="http://sozi.baierouge.fr" id="england" sodipodi:docname="_svgclean2.svg" viewBox="0 0 232.14 174.79" sodipodi:version="0.32" version="1.1" inkscape:version="0.48.3.1 r9886" xmlns:xlink="http://www.w3.org/1999/xlink">
  <sodipodi:namedview id="base" inkscape:window-width="674" inkscape:window-x="0" inkscape:window-y="0" snaptogrid="false" inkscape:window-maximized="0" inkscape:zoom="2.6142857" showgrid="false" inkscape:current-layer="england" inkscape:cx="92.5282" inkscape:cy="-807.35076" inkscape:window-height="645">
    <inkscape:grid id="GridFromPre046Settings" opacity=".15" color="#3f3fff" originy="-241.60788mm" originx="-0.13315244mm" empspacing="5" spacingy="6mm" spacingx="6mm" empopacity="0.38" type="xygrid" empcolor="#3f3fff"/>
  </sodipodi:namedview>
  <rect id="rect956" style="fill-rule:evenodd;stroke-opacity:0;fill:#ffffff" height="174.54" width="231.91" y=".25427" x="0"/>
  <g id="g887" transform="matrix(.68243 0 0 .69076 .00634 -1.3598)">
    <rect id="horizontal" style="fill-rule:evenodd;stroke-width:0pt;fill:#cc0000" height="42.52" width="340.16" y="106.18" x="0"/>
    <rect id="vertical" style="fill-rule:evenodd;stroke-width:0pt;fill:#cc0000" height="253.03" width="42.52" y="1.9685" x="148.82"/>
    <g id="g866" style="fill:#cc0000" transform="matrix(.47408 0 0 .47408 -4.4939 -1.0358)">
      <path id="path1167" d="m135.39 106c1.65 2.67 2.02 5.48 0 8h4.61c-1.66-3.26-1.47-5.48 0-8h-4.61z" sodipodi:nodetypes="ccccc" inkscape:connector-curvature="0" transform="matrix(13.463,0,0,16.817,-1687.4,-1735.8)"/>
      <path id="path865" d="m135.39 106c1.65 2.67 2.02 5.48 0 8h4.61c-1.66-3.26-1.47-5.48 0-8h-4.61z" sodipodi:nodetypes="ccccc" inkscape:connector-curvature="0" transform="matrix(0,-13.463,16.817,0,-1683.4,1967.9)"/>
    </g>
    <g id="g878" style="fill:#cc0000" transform="matrix(.47408 0 0 .47408 -4.4939 147.78)">
      <path id="path879" d="m135.39 106c1.65 2.67 2.02 5.48 0 8h4.61c-1.66-3.26-1.47-5.48 0-8h-4.61z" sodipodi:nodetypes="ccccc" inkscape:connector-curvature="0" transform="matrix(13.463,0,0,16.817,-1687.4,-1735.8)"/>
      <path id="path880" d="m135.39 106c1.65 2.67 2.02 5.48 0 8h4.61c-1.66-3.26-1.47-5.48 0-8h-4.61z" sodipodi:nodetypes="ccccc" inkscape:connector-curvature="0" transform="matrix(0,-13.463,16.817,0,-1683.4,1967.9)"/>
    </g>
    <g id="g881" style="fill:#cc0000" transform="matrix(.47408 0 0 .47408 186.84 147.78)">
      <path id="path882" d="m135.39 106c1.65 2.67 2.02 5.48 0 8h4.61c-1.66-3.26-1.47-5.48 0-8h-4.61z" sodipodi:nodetypes="ccccc" inkscape:connector-curvature="0" transform="matrix(13.463,0,0,16.817,-1687.4,-1735.8)"/>
      <path id="path883" d="m135.39 106c1.65 2.67 2.02 5.48 0 8h4.61c-1.66-3.26-1.47-5.48 0-8h-4.61z" sodipodi:nodetypes="ccccc" inkscape:connector-curvature="0" transform="matrix(0,-13.463,16.817,0,-1683.4,1967.9)"/>
    </g>
    <g id="g884" style="fill:#cc0000" transform="matrix(.47408 0 0 .47408 186.84 -1.0358)">
      <path id="path885" d="m135.39 106c1.65 2.67 2.02 5.48 0 8h4.61c-1.66-3.26-1.47-5.48 0-8h-4.61z" sodipodi:nodetypes="ccccc" inkscape:connector-curvature="0" transform="matrix(13.463,0,0,16.817,-1687.4,-1735.8)"/>
      <path id="path886" d="m135.39 106c1.65 2.67 2.02 5.48 0 8h4.61c-1.66-3.26-1.47-5.48 0-8h-4.61z" sodipodi:nodetypes="ccccc" inkscape:connector-curvature="0" transform="matrix(0,-13.463,16.817,0,-1683.4,1967.9)"/>
    </g>
  </g>
  <metadata id="metadata20">
    <rdf:RDF>
      <cc:Work>
        <dc:format>image/svg+xml</dc:format>
        <dc:type rdf:resource="http://purl.org/dc/dcmitype/StillImage"/>
        <cc:license rdf:resource="http://creativecommons.org/licenses/publicdomain/"/>
        <dc:publisher>
          <cc:Agent rdf:about="http://openclipart.org/">
            <dc:title>Openclipart</dc:title>
          </cc:Agent>
        </dc:publisher>
      </cc:Work>
      <cc:License rdf:about="http://creativecommons.org/licenses/publicdomain/">
        <cc:permits rdf:resource="http://creativecommons.org/ns#Reproduction"/>
        <cc:permits rdf:resource="http://creativecommons.org/ns#Distribution"/>
        <cc:permits rdf:resource="http://creativecommons.org/ns#DerivativeWorks"/>
      </cc:License>
    </rdf:RDF>
  </metadata>
</svg>
